<svg xmlns="http://www.w3.org/2000/svg" viewBox="0 0 40 40">
  <circle cx="20" cy="20" r="19" fill="#FF6600"/>
  <ellipse cx="14" cy="13" rx="7" ry="5" fill="#FF9944" opacity="0.65"/>
  <circle cx="20" cy="20" r="19" fill="none" stroke="#CC3300" stroke-width="1.5"/>
  <line x1="1.5" y1="20" x2="38.5" y2="20" stroke="#CC3300" stroke-width="1.2" opacity="0.7"/>
  <!-- 4-pointed star top-left -->
  <polygon points="13,8 14.2,12 18,13 14.2,14 13,18 11.8,14 8,13 11.8,12" fill="#CC0000"/>
  <!-- 4-pointed star top-right -->
  <polygon points="27,8 28.2,12 32,13 28.2,14 27,18 25.8,14 22,13 25.8,12" fill="#CC0000"/>
  <!-- 4-pointed star bottom-left -->
  <polygon points="13,22 14.2,26 18,27 14.2,28 13,32 11.8,28 8,27 11.8,26" fill="#CC0000"/>
  <!-- 4-pointed star bottom-right -->
  <polygon points="27,22 28.2,26 32,27 28.2,28 27,32 25.8,28 22,27 25.8,26" fill="#CC0000"/>
</svg>
